

FULL_INFOs


99.99% --- SYNCED GUARANTEED 

Source : DVD

My Media Player of Choice "VLC Media Player"

Spoken Language : English Only

Audio : 6 ~ Channels


 
http://www.imdb.com/title/tt0221073/




Subs Info : MULTI_SUBS

 
http://www.subtitleseeker.com/0221073/Chopper/Subtitles/


99 Subtitles In 18 Languages Use Link Provided 

 
http://www.subtitleseeker.com/0221073/Chopper/Subtitles/


99 Subtitles In 18 Languages Only @ SubtitleSeeker

 
http://www.subtitleseeker.com/0221073/Chopper/Subtitles/


All .srt subs can be turned On/Off


 
http://www.imdb.com/title/tt0221073/



General

Complete name : Chopper 2000.DVDRip.H.263.DivX . NVEE.divx
Format : AVI
Format/Info : Audio Video Interleave
File size : 1.07 GiB
Duration : 1h 27mn
Overall bit rate : 1 759 Kbps

Video

ID : 0
Format : MPEG-4 Visual
Format settings, BVOP : 1
Format settings, QPel : No
Format settings, GMC : No warppoints
Format settings, Matrix : Default (H.263)
Muxing mode : Packed bitstream
Codec ID : DX50
Codec ID/Hint : DivX 5
Duration : 1h 27mn
Bit rate : 1 301 Kbps
Width : 720 pixels
Height : 400 pixels
Display aspect ratio : 16:9
Frame rate : 25.000 fps
Color space : YUV
Chroma subsampling : 4:2:0
Bit depth : 8 bits
Scan type : Progressive
Compression mode : Lossy
Bits/(Pixel*Frame) : 0.181
Stream size : 811 MiB (74%)
Title : Video
Writing library : DivX 6.8.5 (UTC 2009-08-20)

Audio

ID : 1
Format : AC-3
Format/Info : Audio Coding 3
Mode extension : CM (complete main)
Format settings, Endianness : Big
Codec ID : 2000
Duration : 1h 27mn
Bit rate mode : Constant
Bit rate : 448 Kbps
Channel(s) : 6 channels
Channel positions : Front: L C R, Side: L R, LFE
Sampling rate : 48.0 KHz
Bit depth : 16 bits
Compression mode : Lossy
Stream size : 279 MiB (25%)
Alignment : Split accross interleaves
Interleave, duration : 40 ms (1.00 video frame)
Interleave, preload duration : 500 ms
Title : Audio


 
http://www.imdb.com/title/tt0221073/



Plot


In and out of jail since he was 16, Melbourne standover man Mark Brandon "Chopper" Read (Eric Bana) is serving a 16-year sentence for kidnapping a supreme court judge to get his childhood friend, Jimmy Loughnan (Simon Lyndon), out of the notorious H Division of maximum security Pentridge Prison. To become leader of the division, he ignites a power struggle which gains him more enemies than admirers. Eventually, even his gang turn their backs on him and Loughnan stabs him several times in a failed assassination attempt. Chopper voluntarily has his ears cut off by a fellow inmate in order to be transferred out of the H Division; this also gains him recognition in and out of the prison.
He is released in 1986, revisiting enemies and friends whom he cannot differentiate anymore. He reunites with his former girlfriend Tanya (Kate Beahan), but suspects that she is involved with one of his old victims, Neville Bartos (Vince Colosimo). He tracks Bartos down, shoots him and takes him to the hospital, unabashedly claiming that he has a "green light" courtesy of the Police "to exterminate scum". When Chopper learns that he is now the target of a death-contract, he goes after his old friend Jimmy, only to find him worn out and poverty stricken by drugs with a daughter and a junkie fiancée who is months pregnant with another child on the way.
He kills a criminal known as Siam "Sammy the Turk" Ozerkam at a bar, but gets away with it by claiming it was self-defense. He eventually ends up back in prison where he writes a book about his experiences in the Melbourne underworld. The book becomes a best-seller and Chopper becomes a criminal legend.
The film ends with Chopper in his prison cell in 1992, watching himself being interviewed on television. He is proud of the interview among those watching with him, but when they leave he goes quiet and the film ends with him sitting in his cell alone. 

THIS TORRENT FILE IS 100% Australian !!!

SEE_ME_TORRENTS'N_SEED_ME_TORRENTS

           (Thank You)
